<?xml version="1.0" encoding="UTF-8"?>
<svg width="16px" height="16px" viewBox="0 0 16 16" version="1.1" xmlns="http://www.w3.org/2000/svg" xmlns:xlink="http://www.w3.org/1999/xlink">
    <!-- Generator: Sketch 49.2 (51160) - http://www.bohemiancoding.com/sketch -->
    <title>文本</title>
    <desc>Created with Sketch.</desc>
    <defs></defs>
    <g id="Page-1" stroke="none" stroke-width="1" fill="none" fill-rule="evenodd">
        <g id="Artboard" transform="translate(-146.000000, -172.000000)" fill="#20AAB0" fill-rule="nonzero">
            <g id="文本" transform="translate(146.000000, 172.000000)">
                <path d="M13.3333333,15.9693487 L2.66666667,15.9693487 C1.2,15.9693487 0,14.7716475 0,13.3077905 L0,2.66155812 C0,1.19770115 1.2,0 2.66666667,0 L13.3333333,0 C14.8,0 16,1.19770115 16,2.66155812 L16,13.3077906 C16,14.7716475 14.8,15.9693487 13.3333333,15.9693487 Z M2.66666667,1.33077905 C1.93333333,1.33077905 1.33333333,1.92962962 1.33333333,2.66155812 L1.33333333,13.3077906 C1.33333333,14.039719 1.93333333,14.6385696 2.66666666,14.6385696 L13.3333333,14.6385696 C14.0666667,14.6385696 14.6666667,14.039719 14.6666667,13.3077906 L14.6666667,2.66155812 C14.6666667,1.92962964 14.0666667,1.33077907 13.3333333,1.33077907 L2.66666667,1.33077905 Z" id="Shape"></path>
                <path d="M7.33333333,10.9884328 L7.33333333,5.09498266 L5.33333334,5.09498266 C5.33333333,5.49421638 5.06666667,5.76037219 4.66666667,5.76037219 C4.26666667,5.76037219 4,5.49421638 4,5.09498266 L4,4.42959315 C4,4.03035943 4.26666667,3.76420361 4.66666667,3.76420361 L11.3333333,3.76420361 C11.7333333,3.76420361 12,4.03035943 12,4.42959315 L12,5.09498268 C12,5.49421638 11.7333333,5.76037219 11.3333333,5.76037219 C10.9333333,5.76037219 10.6666667,5.49421638 10.6666667,5.09498266 L8.66666667,5.09498266 L8.66666667,10.9884328 C9.06666667,10.9884328 9.33333334,11.2545886 9.33333334,11.6538223 C9.33333334,12.053056 9.06666667,12.3192118 8.66666667,12.3192118 L7.33333334,12.3192118 C6.93333334,12.3192118 6.66666667,12.053056 6.66666667,11.6538223 C6.66666667,11.2545886 6.93333333,10.9884328 7.33333332,10.9884328 Z" id="Combined-Shape"></path>
            </g>
        </g>
    </g>
</svg>